<?xml version="1.0" encoding="utf-8"?>
<!-- Generator: Adobe Illustrator 16.0.0, SVG Export Plug-In . SVG Version: 6.00 Build 0)  -->
<!DOCTYPE svg PUBLIC "-//W3C//DTD SVG 1.1//EN" "http://www.w3.org/Graphics/SVG/1.1/DTD/svg11.dtd">
<svg version="1.1" id="Layer_1" xmlns="http://www.w3.org/2000/svg" xmlns:xlink="http://www.w3.org/1999/xlink" x="0px" y="0px"
	 width="45px" height="55px" viewBox="-10.5 -15.5 45 55" enable-background="new -10.5 -15.5 45 55" xml:space="preserve">
<path fill="#FFFFFF" d="M16.979,11.999L1.367-11.169c-0.856-1.271-0.521-3,0.751-3.856c0.459-0.31,0.996-0.475,1.55-0.475
	c0.927,0,1.787,0.459,2.304,1.226l16.659,24.721c0.635,0.942,0.635,2.161,0,3.104L5.978,38.274C5.459,39.043,4.597,39.5,3.672,39.5
	c-0.555,0-1.09-0.162-1.549-0.473c-0.615-0.414-1.032-1.043-1.176-1.771c-0.143-0.729,0.008-1.468,0.424-2.084L16.979,11.999z"/>
<polyline fill="none" stroke="#000000" stroke-width="4" stroke-linecap="round" stroke-linejoin="round" points="-22.875,39.391 
	-41.25,12.111 -22.87,-15.163 "/>
</svg>
