<?xml version="1.0" encoding="utf-8"?>
<!-- Generator: Adobe Illustrator 16.0.0, SVG Export Plug-In . SVG Version: 6.00 Build 0)  -->
<!DOCTYPE svg PUBLIC "-//W3C//DTD SVG 1.1//EN" "http://www.w3.org/Graphics/SVG/1.1/DTD/svg11.dtd">
<svg version="1.1" id="Layer_1" xmlns="http://www.w3.org/2000/svg" xmlns:xlink="http://www.w3.org/1999/xlink" x="0px" y="0px"
	 width="45px" height="55px" viewBox="-10.5 -15.5 45 55" enable-background="new -10.5 -15.5 45 55" xml:space="preserve">
<path fill="#FFFFFF" d="M7.021,11.999l15.611-23.168c0.856-1.271,0.521-3-0.751-3.856c-0.459-0.31-0.996-0.475-1.55-0.475
	c-0.927,0-1.787,0.459-2.304,1.226L1.369,10.446c-0.634,0.942-0.634,2.161,0,3.104l16.654,24.725
	c0.519,0.769,1.381,1.226,2.306,1.226c0.555,0,1.09-0.162,1.549-0.473c0.615-0.414,1.032-1.043,1.176-1.771
	c0.143-0.729-0.008-1.468-0.424-2.084L7.021,11.999z"/>
<polyline fill="none" stroke="#000000" stroke-width="4" stroke-linecap="round" stroke-linejoin="round" points="-22.875,39.391 
	-41.25,12.111 -22.87,-15.163 "/>
</svg>
